<svg width="80" height="45" viewBox="0 0 80 45" fill="none" xmlns="http://www.w3.org/2000/svg">
<path d="M1.728 24V8.4H5.856V20.544H11.76V24H1.728ZM20.8386 24.288C19.7506 24.288 18.7986 24.128 17.9826 23.808C17.1666 23.488 16.4866 23.008 15.9426 22.368C15.4146 21.728 15.0146 20.92 14.7426 19.944C14.4866 18.952 14.3586 17.792 14.3586 16.464V8.4H18.4866V16.944C18.4866 17.872 18.5666 18.616 18.7266 19.176C18.9026 19.72 19.1586 20.12 19.4946 20.376C19.8466 20.616 20.2946 20.736 20.8386 20.736C21.3826 20.736 21.8306 20.616 22.1826 20.376C22.5346 20.12 22.7986 19.72 22.9746 19.176C23.1506 18.616 23.2386 17.872 23.2386 16.944V8.4H27.2226V16.464C27.2226 17.792 27.0946 18.952 26.8386 19.944C26.5826 20.92 26.1906 21.728 25.6626 22.368C25.1506 23.008 24.4866 23.488 23.6706 23.808C22.8706 24.128 21.9266 24.288 20.8386 24.288ZM37.3476 24.288C36.0196 24.288 34.7876 24 33.6516 23.424C32.5316 22.832 31.6276 21.944 30.9396 20.76C30.2516 19.576 29.9076 18.096 29.9076 16.32C29.9076 15.008 30.1076 13.848 30.5076 12.84C30.9236 11.816 31.4836 10.952 32.1876 10.248C32.9076 9.544 33.7156 9.016 34.6116 8.664C35.5236 8.296 36.4676 8.112 37.4436 8.112C38.4836 8.112 39.4116 8.32 40.2276 8.736C41.0596 9.136 41.7476 9.616 42.2916 10.176L40.1316 12.816C39.7476 12.48 39.3476 12.208 38.9316 12C38.5316 11.776 38.0676 11.664 37.5396 11.664C36.9316 11.664 36.3636 11.848 35.8356 12.216C35.3236 12.568 34.9076 13.08 34.5876 13.752C34.2836 14.424 34.1316 15.232 34.1316 16.176C34.1316 17.152 34.2676 17.984 34.5396 18.672C34.8276 19.344 35.2196 19.856 35.7156 20.208C36.2276 20.56 36.8196 20.736 37.4916 20.736C38.0996 20.736 38.6356 20.6 39.0996 20.328C39.5796 20.056 39.9876 19.744 40.3236 19.392L42.4836 21.984C41.8276 22.752 41.0596 23.328 40.1796 23.712C39.2996 24.096 38.3556 24.288 37.3476 24.288ZM51.4101 24.288C50.0821 24.288 48.8501 24 47.7141 23.424C46.5941 22.832 45.6901 21.944 45.0021 20.76C44.3141 19.576 43.9701 18.096 43.9701 16.32C43.9701 15.008 44.1701 13.848 44.5701 12.84C44.9861 11.816 45.5461 10.952 46.2501 10.248C46.9701 9.544 47.7781 9.016 48.6741 8.664C49.5861 8.296 50.5301 8.112 51.5061 8.112C52.5461 8.112 53.4741 8.32 54.2901 8.736C55.1221 9.136 55.8101 9.616 56.3541 10.176L54.1941 12.816C53.8101 12.48 53.4101 12.208 52.9941 12C52.5941 11.776 52.1301 11.664 51.6021 11.664C50.9941 11.664 50.4261 11.848 49.8981 12.216C49.3861 12.568 48.9701 13.08 48.6501 13.752C48.3461 14.424 48.1941 15.232 48.1941 16.176C48.1941 17.152 48.3301 17.984 48.6021 18.672C48.8901 19.344 49.2821 19.856 49.7781 20.208C50.2901 20.56 50.8821 20.736 51.5541 20.736C52.1621 20.736 52.6981 20.6 53.1621 20.328C53.6421 20.056 54.0501 19.744 54.3861 19.392L56.5461 21.984C55.8901 22.752 55.1221 23.328 54.2421 23.712C53.3621 24.096 52.4181 24.288 51.4101 24.288ZM56.7366 24L61.4886 8.4H66.4806L71.2326 24H66.8646L65.0886 16.416C64.8966 15.664 64.7046 14.848 64.5126 13.968C64.3206 13.088 64.1286 12.256 63.9366 11.472H63.8406C63.6806 12.256 63.5046 13.088 63.3126 13.968C63.1206 14.848 62.9286 15.664 62.7366 16.416L60.9606 24H56.7366ZM60.1446 20.688V17.496H67.7766V20.688H60.1446Z" fill="black"/>
<path d="M2.296 41V29.3H6.58C7.432 29.3 8.218 29.42 8.938 29.66C9.658 29.9 10.234 30.302 10.666 30.866C11.11 31.43 11.332 32.204 11.332 33.188C11.332 34.136 11.11 34.916 10.666 35.528C10.234 36.128 9.658 36.572 8.938 36.86C8.23 37.148 7.468 37.292 6.652 37.292H5.392V41H2.296ZM5.392 34.844H6.508C7.12 34.844 7.57 34.7 7.858 34.412C8.158 34.112 8.308 33.704 8.308 33.188C8.308 32.66 8.146 32.288 7.822 32.072C7.498 31.856 7.036 31.748 6.436 31.748H5.392V34.844ZM11.7712 41L15.3352 29.3H19.0792L22.6432 41H19.3672L18.0352 35.312C17.8912 34.748 17.7472 34.136 17.6032 33.476C17.4592 32.816 17.3152 32.192 17.1712 31.604H17.0992C16.9792 32.192 16.8472 32.816 16.7032 33.476C16.5592 34.136 16.4152 34.748 16.2712 35.312L14.9392 41H11.7712ZM14.3272 38.516V36.122H20.0512V38.516H14.3272ZM25.9909 41V31.892H22.8949V29.3H32.1829V31.892H29.0869V41H25.9909ZM38.707 41.216C37.891 41.216 37.177 41.096 36.565 40.856C35.953 40.616 35.443 40.256 35.035 39.776C34.639 39.296 34.339 38.69 34.135 37.958C33.943 37.214 33.847 36.344 33.847 35.348V29.3H36.943V35.708C36.943 36.404 37.003 36.962 37.123 37.382C37.255 37.79 37.447 38.09 37.699 38.282C37.963 38.462 38.299 38.552 38.707 38.552C39.115 38.552 39.451 38.462 39.715 38.282C39.979 38.09 40.177 37.79 40.309 37.382C40.441 36.962 40.507 36.404 40.507 35.708V29.3H43.495V35.348C43.495 36.344 43.399 37.214 43.207 37.958C43.015 38.69 42.721 39.296 42.325 39.776C41.941 40.256 41.443 40.616 40.831 40.856C40.231 41.096 39.523 41.216 38.707 41.216ZM51.0888 41.216C50.0928 41.216 49.1688 41 48.3168 40.568C47.4768 40.124 46.7988 39.458 46.2828 38.57C45.7668 37.682 45.5088 36.572 45.5088 35.24C45.5088 34.256 45.6588 33.386 45.9588 32.63C46.2708 31.862 46.6908 31.214 47.2188 30.686C47.7588 30.158 48.3648 29.762 49.0368 29.498C49.7208 29.222 50.4288 29.084 51.1608 29.084C51.9408 29.084 52.6368 29.24 53.2488 29.552C53.8728 29.852 54.3888 30.212 54.7968 30.632L53.1768 32.612C52.8888 32.36 52.5888 32.156 52.2768 32C51.9768 31.832 51.6288 31.748 51.2328 31.748C50.7768 31.748 50.3508 31.886 49.9548 32.162C49.5708 32.426 49.2588 32.81 49.0188 33.314C48.7908 33.818 48.6768 34.424 48.6768 35.132C48.6768 35.864 48.7788 36.488 48.9828 37.004C49.1988 37.508 49.4928 37.892 49.8648 38.156C50.2488 38.42 50.6928 38.552 51.1968 38.552C51.6528 38.552 52.0548 38.45 52.4028 38.246C52.7628 38.042 53.0688 37.808 53.3208 37.544L54.9408 39.488C54.4488 40.064 53.8728 40.496 53.2128 40.784C52.5528 41.072 51.8448 41.216 51.0888 41.216ZM61.6357 41.216C60.6397 41.216 59.7157 41 58.8637 40.568C58.0237 40.124 57.3457 39.458 56.8297 38.57C56.3137 37.682 56.0557 36.572 56.0557 35.24C56.0557 34.256 56.2057 33.386 56.5057 32.63C56.8177 31.862 57.2377 31.214 57.7657 30.686C58.3057 30.158 58.9117 29.762 59.5837 29.498C60.2677 29.222 60.9757 29.084 61.7077 29.084C62.4877 29.084 63.1837 29.24 63.7957 29.552C64.4197 29.852 64.9357 30.212 65.3437 30.632L63.7237 32.612C63.4357 32.36 63.1357 32.156 62.8237 32C62.5237 31.832 62.1757 31.748 61.7797 31.748C61.3237 31.748 60.8977 31.886 60.5017 32.162C60.1177 32.426 59.8057 32.81 59.5657 33.314C59.3377 33.818 59.2237 34.424 59.2237 35.132C59.2237 35.864 59.3257 36.488 59.5297 37.004C59.7457 37.508 60.0397 37.892 60.4117 38.156C60.7957 38.42 61.2397 38.552 61.7437 38.552C62.1997 38.552 62.6017 38.45 62.9497 38.246C63.3097 38.042 63.6157 37.808 63.8677 37.544L65.4877 39.488C64.9957 40.064 64.4197 40.496 63.7597 40.784C63.0997 41.072 62.3917 41.216 61.6357 41.216ZM67.1065 41V29.3H70.2025V41H67.1065Z" fill="black"/>
<line x1="1" y1="26.5" x2="71" y2="26.5" stroke="black"/>
</svg>
